<svg width="16" height="16" viewBox="0 0 16 16" fill="none" xmlns="http://www.w3.org/2000/svg">
<g clip-path="url(#clip0_20986_232615)">
<path d="M6.7628 4.72933C6.90689 4.91894 7.09462 5.07098 7.31003 5.17253C7.52544 5.27409 7.76217 5.32216 8.00013 5.31267C8.75947 5.31267 9.37547 4.85067 9.37547 4.28133C9.37547 3.712 8.76013 3.25067 8.00013 3.25067C7.24013 3.25067 6.6268 2.78867 6.6268 2.21867C6.6268 1.64867 7.24213 1.18733 8.00013 1.18733C8.23831 1.17762 8.47531 1.22559 8.69098 1.32715C8.90664 1.42872 9.09457 1.58087 9.2388 1.77067M8.00147 5.31267V6M8.00147 0.5V1.18733M1.00146 4.5C1.00146 5.03043 1.21218 5.53914 1.58725 5.91421C1.96232 6.28929 2.47103 6.5 3.00146 6.5C3.5319 6.5 4.04061 6.28929 4.41568 5.91421C4.79075 5.53914 5.00146 5.03043 5.00146 4.5C5.00146 3.96957 4.79075 3.46086 4.41568 3.08579C4.04061 2.71071 3.5319 2.5 3.00146 2.5C2.47103 2.5 1.96232 2.71071 1.58725 3.08579C1.21218 3.46086 1.00146 3.96957 1.00146 4.5ZM5.50146 11.5V10C5.50146 9.33696 5.23807 8.70107 4.76923 8.23223C4.30039 7.76339 3.66451 7.5 3.00146 7.5C2.33842 7.5 1.70254 7.76339 1.2337 8.23223C0.764857 8.70107 0.501465 9.33696 0.501465 10V11.5H1.50146L2.00146 15.5H4.00013L4.50013 11.5H5.50146ZM11.0015 4.5C11.0015 5.03043 11.2122 5.53914 11.5873 5.91421C11.9623 6.28929 12.471 6.5 13.0015 6.5C13.5319 6.5 14.0406 6.28929 14.4157 5.91421C14.7908 5.53914 15.0015 5.03043 15.0015 4.5C15.0015 3.96957 14.7908 3.46086 14.4157 3.08579C14.0406 2.71071 13.5319 2.5 13.0015 2.5C12.471 2.5 11.9623 2.71071 11.5873 3.08579C11.2122 3.46086 11.0015 3.96957 11.0015 4.5ZM15.5015 11.5V10C15.5015 9.33696 15.2381 8.70107 14.7692 8.23223C14.3004 7.76339 13.6645 7.5 13.0015 7.5C12.3384 7.5 11.7025 7.76339 11.2337 8.23223C10.7649 8.70107 10.5015 9.33696 10.5015 10V11.5H11.5015L12.0015 15.5H14.0015L14.5015 11.5H15.5015Z" stroke="#7F24E3" stroke-linecap="round" stroke-linejoin="round"/>
</g>
<defs>
<clipPath id="clip0_20986_232615">
<rect width="16" height="16" fill="white"/>
</clipPath>
</defs>
</svg>
