<svg width="24" height="24" viewBox="0 0 24 24" fill="none" xmlns="http://www.w3.org/2000/svg">
<g clip-path="url(#clip0_21314_115622)">
<path d="M17.3753 8.33077L17.3666 8.32696C17.3615 8.32514 17.3566 8.32323 17.3522 8.31884C17.345 8.31116 17.3397 8.30187 17.3367 8.29184C17.3336 8.28174 17.3329 8.27106 17.3346 8.26067L17.8183 5.30405L20.0864 7.5725L17.7275 8.57596C17.721 8.57867 17.714 8.57992 17.7069 8.57977H17.6975C17.6944 8.57787 17.6913 8.57538 17.685 8.56909C17.5972 8.4714 17.4923 8.39062 17.3753 8.33077ZM20.6652 8.15055L23.0903 10.5754C23.594 11.0796 23.8461 11.3312 23.9381 11.6227C23.9519 11.6659 23.9632 11.7091 23.9719 11.7535L18.1762 9.29918C18.1731 9.29794 18.1699 9.2967 18.1668 9.29545C18.1437 9.28609 18.1167 9.2754 18.1167 9.25162C18.1167 9.22784 18.1442 9.21665 18.1674 9.20721L18.1749 9.20413L20.6652 8.15055ZM23.8731 12.5317C23.7479 12.767 23.5039 13.0109 23.091 13.4245L20.3567 16.1578L16.8204 15.4215L16.8016 15.4176C16.7702 15.4127 16.7371 15.407 16.7371 15.3789C16.7237 15.233 16.6804 15.0915 16.6099 14.963C16.5394 14.8347 16.4432 14.7222 16.3273 14.6325C16.3129 14.6181 16.3167 14.5956 16.3211 14.5749C16.3211 14.5719 16.3211 14.5687 16.3223 14.5662L16.9874 10.4835L16.9899 10.4697C16.9936 10.4385 16.9993 10.4022 17.0274 10.4022C17.17 10.3845 17.3075 10.3385 17.4322 10.2671C17.5568 10.1957 17.6659 10.1001 17.7532 9.98611C17.7589 9.97989 17.7626 9.97301 17.7701 9.96921C17.7902 9.95984 17.814 9.96921 17.8346 9.97799L23.8724 12.5317H23.8731ZM19.7279 16.7865L15.2317 21.2821L16.0013 16.5525L16.0025 16.5462C16.0032 16.54 16.0044 16.5337 16.0063 16.5281C16.0126 16.5131 16.0288 16.5069 16.0445 16.5006L16.052 16.4974C16.2205 16.4256 16.3696 16.3147 16.4869 16.174C16.5019 16.1565 16.52 16.1396 16.5431 16.1365C16.5492 16.1355 16.5553 16.1355 16.5613 16.1365L19.7273 16.7871L19.7279 16.7865ZM14.28 22.2336L13.7732 22.7404L8.17027 14.6438C8.16823 14.6408 8.1661 14.6379 8.16398 14.635C8.1552 14.6232 8.14583 14.6112 8.14774 14.5975C8.14774 14.5875 8.15461 14.5787 8.16149 14.5712L8.16771 14.5631C8.18462 14.5381 8.19903 14.513 8.21469 14.4861L8.2272 14.4642L8.22903 14.4623C8.23781 14.4473 8.24593 14.4329 8.26101 14.4248C8.2741 14.4186 8.29225 14.4211 8.30666 14.4242L14.514 15.7042C14.5314 15.7069 14.5478 15.714 14.5616 15.7248C14.5697 15.7329 14.5716 15.7417 14.5735 15.7517C14.6168 15.9156 14.6974 16.0671 14.809 16.1946C14.9206 16.3222 15.0601 16.4221 15.2167 16.4868C15.2342 16.4956 15.2267 16.515 15.2186 16.5356C15.2145 16.5447 15.2113 16.5541 15.2092 16.5638C15.131 17.0393 14.4602 21.1295 14.28 22.2336ZM13.2214 23.2915C12.8479 23.6614 12.6276 23.8572 12.3786 23.936C12.1331 24.0136 11.8696 24.0136 11.624 23.936C11.3325 23.8434 11.0803 23.5918 10.5766 23.0876L4.94985 17.4615L6.41958 15.1824C6.42646 15.1712 6.43335 15.1612 6.44461 15.1531C6.46025 15.1418 6.48277 15.1468 6.50155 15.1531C6.83889 15.2548 7.20109 15.2365 7.52644 15.1011C7.54335 15.0948 7.56018 15.0905 7.57335 15.1024C7.57993 15.1084 7.58579 15.1151 7.59083 15.1224L13.2214 23.2922V23.2915ZM4.40738 16.9191L3.1166 15.6285L5.66563 14.5412C5.67214 14.5384 5.67917 14.5368 5.68628 14.5368C5.70755 14.5368 5.72006 14.5581 5.73133 14.5775C5.75695 14.6169 5.78408 14.6553 5.81267 14.6926L5.82081 14.7026C5.82831 14.7132 5.82331 14.7238 5.8158 14.7339L4.40801 16.9191H4.40738ZM2.54535 15.0573L0.912308 13.4245C0.634504 13.1467 0.433034 12.9453 0.29288 12.7719L5.25831 13.8017C5.26455 13.8028 5.27081 13.8039 5.27708 13.8048C5.30774 13.8099 5.34153 13.8155 5.34153 13.8443C5.34153 13.8755 5.30461 13.8899 5.27333 13.9018L5.25893 13.9081L2.54535 15.0573ZM0.00756836 11.9324C0.0132272 11.8272 0.0321474 11.7232 0.06388 11.6227C0.156481 11.3312 0.408006 11.0796 0.912308 10.5754L3.00209 8.48589C3.9643 9.88221 4.9291 11.2767 5.89651 12.6694C5.9134 12.6919 5.93217 12.7169 5.91278 12.7356C5.82143 12.8364 5.73008 12.9465 5.66563 13.066C5.65864 13.0814 5.64788 13.0947 5.63435 13.1048C5.62621 13.1098 5.61746 13.1079 5.60807 13.106H5.60682L0.00756836 11.9318V11.9324ZM3.56145 7.92657L6.37016 5.11699C6.63482 5.23274 7.59647 5.63875 8.45557 6.00161C9.10627 6.27687 9.6994 6.52712 9.88591 6.60845C9.90464 6.61595 9.92154 6.62346 9.92966 6.64223C9.93471 6.65349 9.93215 6.66788 9.92966 6.67977C9.88518 6.88257 9.89183 7.09325 9.94891 7.29287C10.0061 7.49253 10.1119 7.67479 10.2569 7.8234C10.2757 7.84213 10.2569 7.86906 10.2406 7.89218L10.2319 7.90535L7.37879 12.324C7.37125 12.3365 7.36437 12.3472 7.35186 12.3553C7.33686 12.3647 7.31556 12.3603 7.29804 12.356C7.18707 12.3268 7.073 12.3113 6.9583 12.3096C6.85568 12.3096 6.74431 12.3284 6.63169 12.349H6.63106C6.61855 12.3509 6.60729 12.3534 6.59728 12.3459C6.58622 12.3369 6.57671 12.3261 6.56912 12.314L3.56083 7.92657H3.56145ZM6.9389 4.54957L10.5766 0.912274C11.0803 0.408657 11.3325 0.156536 11.624 0.0645717C11.8696 -0.0130604 12.1331 -0.0130604 12.3786 0.0645717C12.6702 0.156536 12.9223 0.408657 13.426 0.912274L14.2144 1.70054L11.6272 5.70695C11.6208 5.71861 11.612 5.72883 11.6015 5.73698C11.5859 5.74761 11.5639 5.74323 11.5452 5.73698C11.3412 5.67508 11.1252 5.66381 10.9159 5.70414C10.7066 5.74448 10.5103 5.83519 10.3439 5.96845C10.327 5.98597 10.302 5.97596 10.2807 5.96657C9.94283 5.81956 7.31494 4.7091 6.9389 4.54957ZM14.7637 2.24983L17.1526 4.63841L16.5769 8.20316V8.21253C16.5764 8.22065 16.5747 8.22862 16.572 8.23631C16.5657 8.24882 16.5532 8.25131 16.5406 8.25504C16.4176 8.29235 16.3017 8.35009 16.1978 8.42582C16.1933 8.42904 16.1891 8.43262 16.1852 8.4365C16.1784 8.44396 16.1715 8.45084 16.1602 8.45209C16.1511 8.45238 16.1419 8.45092 16.1333 8.44777L12.4931 6.90123L12.4862 6.89811C12.4631 6.88872 12.4355 6.87746 12.4355 6.85369C12.4142 6.65086 12.3479 6.45532 12.2416 6.28126C12.2241 6.25248 12.2047 6.22245 12.2197 6.19304L14.7637 2.24983ZM12.3035 7.63382L15.716 9.07901C15.7347 9.08772 15.7554 9.09584 15.7636 9.11523C15.7668 9.12694 15.7668 9.13923 15.7636 9.15094C15.7535 9.20099 15.7448 9.25792 15.7448 9.31543V9.41121C15.7448 9.43499 15.7204 9.44494 15.6979 9.45438L15.691 9.45687C15.1504 9.68772 8.10142 12.6931 8.09081 12.6931C8.08013 12.6931 8.06886 12.6931 8.05825 12.6825C8.03944 12.6637 8.05825 12.6375 8.07515 12.6137C8.07815 12.6096 8.08108 12.6054 8.08393 12.6012L10.8882 8.25943L10.8932 8.25189C10.9095 8.22562 10.9283 8.19628 10.9583 8.19628L10.9865 8.2006C11.0503 8.20938 11.1066 8.2175 11.1635 8.2175C11.589 8.2175 11.9832 8.01043 12.2209 7.65635C12.2266 7.64692 12.2338 7.63843 12.2422 7.63133C12.2591 7.61882 12.2842 7.62504 12.3035 7.63382ZM8.39549 13.3801L16.0789 10.1037C16.0789 10.1037 16.0901 10.1038 16.1008 10.1144C16.1427 10.1563 16.1784 10.1844 16.2128 10.2107L16.2297 10.2214C16.2453 10.2301 16.261 10.2401 16.2622 10.2564C16.2622 10.2626 16.2622 10.2664 16.261 10.272L15.6027 14.3147L15.6002 14.331C15.5959 14.3622 15.5915 14.3979 15.5621 14.3979C15.3866 14.4098 15.2166 14.4642 15.067 14.5566C14.9173 14.6488 14.7924 14.7763 14.703 14.9278L14.6999 14.9328C14.6911 14.9472 14.683 14.961 14.6686 14.9685C14.6555 14.9747 14.6386 14.9723 14.6248 14.9691L8.49749 13.7054C8.4912 13.7041 8.40237 13.3806 8.39549 13.3801Z" fill="url(#paint0_radial_21314_115622)"/>
</g>
<defs>
<radialGradient id="paint0_radial_21314_115622" cx="0" cy="0" r="1" gradientUnits="userSpaceOnUse" gradientTransform="translate(-0.797019 11.6618) rotate(90) scale(23.9614 27.6677)">
<stop stop-color="#20C6B7"/>
<stop offset="1" stop-color="#4D9ABF"/>
</radialGradient>
<clipPath id="clip0_21314_115622">
<rect width="24" height="24" fill="white"/>
</clipPath>
</defs>
</svg>
