<svg width="24" height="24" viewBox="0 0 24 24" fill="none" xmlns="http://www.w3.org/2000/svg">
<path d="M12 24C18.6274 24 24 18.6274 24 12C24 5.37258 18.6274 0 12 0C5.37258 0 0 5.37258 0 12C0 18.6274 5.37258 24 12 24Z" fill="#139EF3"/>
<path fill-rule="evenodd" clip-rule="evenodd" d="M12 4.34033C12.3111 4.34033 12.5633 4.58989 12.5633 4.89774V5.34366H16.5142C17.5363 5.34366 18.3649 6.16365 18.3649 7.17513V8.84515C18.3649 9.03523 18.4412 9.21751 18.5771 9.35193L18.8897 9.6613C19.2354 10.0034 19.2354 10.558 18.8897 10.9L18.5771 11.2094C18.4412 11.3438 18.3649 11.5261 18.3649 11.7162V13.2588C18.3649 13.5667 18.1128 13.8162 17.8017 13.8162C17.4906 13.8162 17.2384 13.5667 17.2384 13.2588V11.7162C17.2384 11.2305 17.4334 10.7646 17.7805 10.4211L17.9224 10.2807L17.7805 10.1402C17.4334 9.79673 17.2384 9.33089 17.2384 8.84515V7.17513C17.2384 6.77934 16.9142 6.45847 16.5142 6.45847H7.48581C7.08586 6.45847 6.76161 6.77934 6.76161 7.17513V8.84515C6.76161 9.33089 6.56663 9.79673 6.21953 10.1402L6.0776 10.2807L6.21953 10.4211C6.56663 10.7646 6.76161 11.2305 6.76161 11.7162V13.1792C6.76161 13.575 7.08586 13.8958 7.48581 13.8958H15.3072C16.3293 13.8958 17.1579 14.7158 17.1579 15.7273V18.594C17.1579 19.6054 16.3293 20.4254 15.3072 20.4254H8.93422C7.9121 20.4254 7.08348 19.6054 7.08348 18.594V17.2562C7.08348 16.9483 7.33566 16.6988 7.64675 16.6988C7.95783 16.6988 8.21002 16.9483 8.21002 17.2562V18.594C8.21002 18.9898 8.53426 19.3106 8.93422 19.3106H15.3072C15.7072 19.3106 16.0314 18.9898 16.0314 18.594V15.7273C16.0314 15.3315 15.7072 15.0106 15.3072 15.0106H7.48581C6.46369 15.0106 5.63507 14.1907 5.63507 13.1792V11.7162C5.63507 11.5261 5.55878 11.3438 5.42295 11.2094L5.11032 10.9C4.76466 10.558 4.76466 10.0034 5.11032 9.6613L5.42295 9.35193C5.55878 9.21751 5.63507 9.03523 5.63507 8.84515V7.17513C5.63507 6.16365 6.46369 5.34366 7.48581 5.34366H11.4367V4.89774C11.4367 4.58989 11.6889 4.34033 12 4.34033Z" fill="white"/>
<path d="M9.8299 10.4678C10.3234 10.4678 10.7235 10.0106 10.7235 9.44657C10.7235 8.88253 10.3234 8.42529 9.8299 8.42529C9.33637 8.42529 8.93628 8.88253 8.93628 9.44657C8.93628 10.0106 9.33637 10.4678 9.8299 10.4678Z" fill="white"/>
<path d="M14.1702 10.4678C14.6638 10.4678 15.0638 10.0106 15.0638 9.44657C15.0638 8.88253 14.6638 8.42529 14.1702 8.42529C13.6767 8.42529 13.2766 8.88253 13.2766 9.44657C13.2766 10.0106 13.6767 10.4678 14.1702 10.4678Z" fill="white"/>
<path fill-rule="evenodd" clip-rule="evenodd" d="M11.9999 3.20418C11.7461 3.20418 11.5404 3.42709 11.5404 3.70205C11.5404 3.97702 11.7461 4.19993 11.9999 4.19993C12.2537 4.19993 12.4595 3.97702 12.4595 3.70205C12.4595 3.42709 12.2537 3.20418 11.9999 3.20418ZM10.468 3.70205C10.468 2.7855 11.1539 2.04248 11.9999 2.04248C12.846 2.04248 13.5318 2.7855 13.5318 3.70205C13.5318 4.61861 12.846 5.36163 11.9999 5.36163C11.1539 5.36163 10.468 4.61861 10.468 3.70205Z" fill="white"/>
</svg>
